<svg width="10" height="10" viewBox="0 0 10 10" fill="none" xmlns="http://www.w3.org/2000/svg">
<g clip-path="url(#clip0_3_70)">
<path d="M2.75387 4.10994C3.08997 4.71925 3.47734 5.30402 3.98027 5.83727C4.48482 6.37379 5.11226 6.86205 5.92444 7.27916C5.98466 7.3086 6.04163 7.3086 6.0929 7.28816C6.17021 7.25871 6.24915 7.1941 6.32646 7.11641C6.38668 7.05588 6.46155 6.95938 6.53967 6.85387C6.85217 6.44085 7.23873 5.92805 7.78479 6.18486C7.797 6.19059 7.80595 6.19713 7.81816 6.20204L9.63945 7.25462C9.64514 7.2579 9.65165 7.26362 9.65654 7.26689C9.89661 7.43292 9.99589 7.68891 9.99833 7.97925C9.99833 8.2745 9.8901 8.60655 9.73141 8.88708C9.52144 9.25757 9.2122 9.50293 8.85575 9.66486C8.5164 9.82189 8.13879 9.90613 7.77584 9.96011C7.20618 10.0444 6.67232 9.99037 6.12626 9.82189C5.59241 9.65587 5.05448 9.38188 4.46692 9.01712L4.42379 8.98931C4.15442 8.82001 3.86308 8.63926 3.57743 8.4258C2.53251 7.63248 1.46724 6.48665 0.773071 5.22551C0.191203 4.1672 -0.12618 3.02464 0.04716 1.93607C0.143189 1.33903 0.397909 0.795968 0.842245 0.437744C1.22961 0.123685 1.75126 -0.0480661 2.42672 0.0124557C2.50403 0.0181808 2.5732 0.0631632 2.60982 0.130228L3.77763 2.11436C3.94853 2.33682 3.96969 2.55764 3.8761 2.77847C3.79879 2.95921 3.64254 3.12606 3.42932 3.28145C3.36666 3.33543 3.29179 3.39023 3.21285 3.44748C2.95162 3.63804 2.65458 3.85804 2.75631 4.11649L2.75387 4.10994Z" fill="black"/>
</g>
<defs>
<clipPath id="clip0_3_70">
<rect width="10" height="10" fill="white"/>
</clipPath>
</defs>
</svg>
